<svg width="235" height="282" viewBox="0 0 235 282" fill="none" xmlns="http://www.w3.org/2000/svg">
<path d="M115.445 80L26.7402 86.4406C26.7402 86.4406 5.26659 84.9743 1.34273 58.3829C-2.58114 31.7915 22.0966 21.0196 22.0966 21.0196L108.943 13.2191C108.943 13.2191 109.205 8.72698 105.445 4.50001C101.686 0.273034 124.048 -0.865675 124.94 0.996718C125.832 2.85911 125.327 11.5371 125.327 11.5371L204.97 2.8703C204.97 2.8703 232.408 6.02162 234.265 35.5689C236.123 65.1162 212.467 72.1044 212.467 72.1044L128.445 79L130.004 110L132.004 131L136.504 198.5L141.504 282L130.504 282L124.504 185L122.504 157.5L117.004 96.5L115.445 80Z" fill="#292929"/>
</svg>
