<svg width="233" height="281" viewBox="0 0 233 281" fill="none" xmlns="http://www.w3.org/2000/svg">
<path d="M106.754 79.2143L18.7876 66.0992C18.7876 66.0992 -1.84547 59.9721 0.141181 33.1663C2.12783 6.36045 28.564 1.24636 28.564 1.24636L115.014 12.6279C115.014 12.6279 116.252 8.30181 113.508 3.35496C110.764 -1.59188 132.834 2.18764 133.297 4.20002C133.76 6.21239 131.37 14.5699 131.37 14.5699L210.98 23.5307C210.98 23.5307 237.064 32.6064 232.415 61.8447C227.765 91.0829 203.154 92.7285 203.154 92.7285L119.658 81.0816L114.399 111.672L111.758 132.601L101.387 199.451L87.9961 280.271L76.9961 280.271L92.6298 183.654L96.6925 156.382L104.666 95.6557L106.754 79.2143Z" fill="url(#paint0_linear_257_372)"/>
<defs>
<linearGradient id="paint0_linear_257_372" x1="120.5" y1="80" x2="148" y2="-132.5" gradientUnits="userSpaceOnUse">
<stop stop-color="#181818"/>
<stop offset="1" stop-color="#616E7F"/>
</linearGradient>
</defs>
</svg>
