<svg width="295" height="330" viewBox="0 0 295 330" fill="none" xmlns="http://www.w3.org/2000/svg">
<path d="M160.754 105.214L72.7876 92.0992C72.7876 92.0992 52.1545 85.9721 54.1412 59.1663C56.1278 32.3605 82.564 27.2464 82.564 27.2464L169.014 38.6279C169.014 38.6279 170.252 34.3018 167.508 29.355C164.764 24.4081 186.834 28.1876 187.297 30.2C187.76 32.2124 185.37 40.5699 185.37 40.5699L264.98 49.5307C264.98 49.5307 291.064 58.6064 286.415 87.8447C281.765 117.083 257.154 118.729 257.154 118.729L173.658 107.082L168.399 137.672L165.758 158.601L155.387 225.451L141.996 306.271L130.996 306.271L146.63 209.654L150.692 182.382L158.666 121.656L160.754 105.214Z" fill="url(#paint0_linear_315_4)"/>
<path d="M93.6915 68.3601C92.6354 68.2105 91.6828 67.9005 90.8337 67.4301C89.9997 66.9483 89.2976 66.3438 88.7273 65.6166C88.172 64.8781 87.7704 64.0536 87.5223 63.1431C87.2743 62.2327 87.2232 61.2626 87.3691 60.2329C87.515 59.2032 87.8335 58.2854 88.3247 57.4797C88.8159 56.674 89.4365 56.001 90.1863 55.4609C90.9381 54.9075 91.7805 54.5219 92.7136 54.304C93.6618 54.0747 94.664 54.0349 95.7201 54.1845C96.7894 54.336 97.7467 54.6602 98.5921 55.157C99.4525 55.6425 100.149 56.2866 100.682 57.0893L99.2178 58.1544C98.7683 57.5252 98.2322 57.0318 97.6095 56.6742C96.9887 56.3035 96.3021 56.0648 95.5496 55.9582C94.7707 55.8478 94.0259 55.877 93.3153 56.0456C92.6178 56.2161 91.9911 56.5044 91.4353 56.9104C90.8796 57.3165 90.4163 57.8299 90.0455 58.4507C89.6899 59.0602 89.4578 59.7477 89.3493 60.5134C89.2408 61.2791 89.2718 62.0107 89.4423 62.7082C89.6279 63.3943 89.9313 64.0096 90.3524 64.5541C90.7735 65.0986 91.2954 65.5496 91.9181 65.9071C92.5539 66.2665 93.2613 66.5014 94.0402 66.6118C94.7927 66.7184 95.5177 66.6864 96.2152 66.5159C96.9145 66.3322 97.5684 65.9939 98.1769 65.5011L99.2873 66.931C98.5526 67.5541 97.7037 67.9859 96.7404 68.2265C95.7903 68.469 94.774 68.5135 93.6915 68.3601ZM105.978 70.0605C104.922 69.9109 104.018 69.5471 103.265 68.9691C102.512 68.3911 101.955 67.6657 101.593 66.7931C101.234 65.9073 101.127 64.9495 101.273 63.9198C101.421 62.8769 101.79 61.9864 102.379 61.2485C102.968 60.5105 103.704 59.9751 104.586 59.6422C105.47 59.2961 106.44 59.1979 107.496 59.3475C108.539 59.4953 109.437 59.8582 110.19 60.4362C110.958 61.0029 111.516 61.7216 111.864 62.5924C112.227 63.4518 112.334 64.4096 112.184 65.4657C112.037 66.5086 111.668 67.399 111.079 68.137C110.502 68.8768 109.766 69.4188 108.869 69.7631C107.985 70.1091 107.021 70.2083 105.978 70.0605ZM106.214 68.3972C106.887 68.4925 107.509 68.4258 108.081 68.197C108.665 67.9701 109.148 67.6009 109.53 67.0894C109.914 66.5648 110.159 65.9328 110.263 65.1935C110.37 64.441 110.31 63.7727 110.083 63.1884C109.858 62.5909 109.496 62.102 108.998 61.7217C108.513 61.3432 107.934 61.1063 107.261 61.0109C106.587 60.9155 105.965 60.9822 105.394 61.2111C104.823 61.4399 104.34 61.8091 103.944 62.3187C103.551 62.815 103.301 63.4395 103.194 64.1919C103.089 64.9312 103.155 65.6071 103.392 66.2197C103.63 66.819 103.992 67.3079 104.477 67.6864C104.962 68.0648 105.541 68.3018 106.214 68.3972ZM121.571 61.3416C122.429 61.4632 123.158 61.7348 123.758 62.1565C124.372 62.5801 124.815 63.1547 125.09 63.8803C125.364 64.606 125.428 65.4837 125.282 66.5134L124.426 72.5531L122.525 72.2837L123.35 66.4619C123.494 65.4454 123.352 64.6441 122.923 64.0582C122.508 63.4741 121.851 63.1185 120.953 62.9913C120.28 62.8959 119.674 62.9447 119.135 63.1377C118.596 63.3306 118.151 63.6649 117.801 64.1405C117.464 64.6179 117.241 65.2395 117.133 66.0052L116.367 71.4112L114.466 71.1419L115.953 60.6467L117.775 60.9048L117.373 63.7365L117.183 62.9419C117.624 62.3041 118.227 61.8442 118.994 61.5624C119.762 61.2806 120.62 61.207 121.571 61.3416ZM131.928 73.7371C130.872 73.5874 130.093 73.1876 129.593 72.5377C129.093 71.8877 128.917 71.0347 129.067 69.9786L130.43 60.3547L132.331 60.624L130.979 70.1687C130.899 70.7363 130.975 71.1916 131.21 71.5345C131.457 71.8793 131.845 72.0891 132.373 72.1639C132.967 72.2481 133.485 72.1532 133.928 71.8793L134.329 73.3298C134.003 73.5395 133.627 73.6748 133.201 73.7356C132.788 73.7983 132.363 73.7988 131.928 73.7371ZM128.101 63.9636L128.323 62.3992L135.016 63.3475L134.794 64.9119L128.101 63.9636ZM143.451 75.2485L143.765 73.0306L143.725 72.6007L144.261 68.8185C144.375 68.0132 144.225 67.3591 143.812 66.8561C143.413 66.3418 142.745 66.0182 141.808 65.8854C141.188 65.7975 140.565 65.8171 139.941 65.9442C139.319 66.058 138.779 66.2576 138.321 66.5428L137.731 65.0048C138.334 64.6459 139.028 64.4075 139.812 64.2897C140.612 64.1605 141.427 64.1549 142.259 64.2727C143.698 64.4766 144.757 64.9835 145.437 65.7936C146.117 66.6036 146.355 67.7281 146.151 69.1671L145.253 75.5038L143.451 75.2485ZM139.989 74.8791C139.21 74.7688 138.542 74.5395 137.985 74.1913C137.442 73.845 137.044 73.4183 136.793 72.9114C136.543 72.3912 136.461 71.8341 136.545 71.2401C136.625 70.6724 136.83 70.1762 137.16 69.7516C137.503 69.3288 137.997 69.0218 138.644 68.8307C139.303 68.6413 140.155 68.6205 141.198 68.7683L144.525 69.2396L144.331 70.606L141.083 70.1459C140.133 70.0112 139.47 70.0789 139.095 70.349C138.72 70.6191 138.501 70.9785 138.437 71.4274C138.364 71.9422 138.51 72.3871 138.875 72.7619C139.241 73.1235 139.787 73.3558 140.513 73.4586C141.226 73.5596 141.869 73.4891 142.442 73.2471C143.028 73.007 143.483 72.6001 143.806 72.0265L143.998 73.3867C143.659 73.9717 143.146 74.4041 142.46 74.6839C141.776 74.9506 140.952 75.0156 139.989 74.8791ZM153.725 76.8252C152.655 76.6737 151.731 76.3071 150.951 75.7253C150.185 75.1454 149.621 74.4192 149.26 73.5466C148.899 72.6739 148.792 71.7162 148.94 70.6732C149.088 69.6303 149.457 68.7399 150.046 68.0019C150.635 67.264 151.378 66.7295 152.273 66.3985C153.183 66.0561 154.173 65.9607 155.242 66.1122C156.193 66.2469 157.011 66.558 157.696 67.0456C158.396 67.5218 158.898 68.1586 159.203 68.9559L157.625 69.6818C157.355 69.1183 156.986 68.6822 156.518 68.3735C156.065 68.0534 155.555 67.8532 154.987 67.7728C154.3 67.6755 153.665 67.7404 153.081 67.9673C152.496 68.1943 152.007 68.5625 151.611 69.0721C151.218 69.5685 150.968 70.1929 150.861 70.9454C150.754 71.6979 150.82 72.3738 151.059 72.9731C151.297 73.5725 151.665 74.0623 152.163 74.4427C152.662 74.823 153.254 75.0618 153.94 75.159C154.508 75.2395 155.053 75.1955 155.575 75.027C156.112 74.8473 156.589 74.5243 157.005 74.0581L158.322 75.1738C157.81 75.8419 157.149 76.3206 156.341 76.6101C155.547 76.8882 154.675 76.9599 153.725 76.8252ZM164.598 78.3658C163.542 78.2162 162.764 77.8164 162.264 77.1664C161.763 76.5165 161.588 75.6634 161.737 74.6073L163.101 64.9834L165.002 65.2528L163.65 74.7975C163.569 75.3651 163.646 75.8204 163.88 76.1633C164.128 76.5081 164.515 76.7179 165.043 76.7927C165.638 76.8769 166.156 76.782 166.599 76.5081L166.999 77.9586C166.673 78.1683 166.297 78.3035 165.871 78.3644C165.458 78.4271 165.034 78.4276 164.598 78.3658ZM160.772 68.5924L160.993 67.028L167.686 67.9763L167.465 69.5407L160.772 68.5924ZM189.951 71.0297C190.795 71.1494 191.518 71.4201 192.118 71.8418C192.718 72.2634 193.149 72.8362 193.41 73.56C193.684 74.2856 193.748 75.1633 193.602 76.193L192.747 82.2327L190.846 81.9633L191.67 76.1415C191.814 75.125 191.685 74.3256 191.283 73.7434C190.881 73.1612 190.251 72.8093 189.392 72.6878C188.759 72.598 188.186 72.6515 187.673 72.8481C187.16 73.0448 186.735 73.3819 186.398 73.8594C186.075 74.3387 185.859 74.9612 185.75 75.7269L184.984 81.1329L183.083 80.8636L183.908 75.0417C184.052 74.0252 183.923 73.2258 183.521 72.6436C183.131 72.0633 182.501 71.7114 181.63 71.588C181.009 71.5001 180.443 71.5545 179.93 71.7512C179.418 71.9479 178.993 72.2849 178.656 72.7624C178.319 73.2398 178.096 73.8614 177.988 74.6271L177.222 80.0331L175.321 79.7638L176.808 69.2686L178.629 69.5267L178.234 72.3188L178.038 71.5638C178.465 70.9241 179.049 70.4615 179.79 70.1759C180.531 69.8903 181.356 69.812 182.267 69.9411C183.271 70.0833 184.1 70.4566 184.755 71.0611C185.412 71.6524 185.781 72.4657 185.863 73.5008L185.136 73.0745C185.567 72.3141 186.213 71.7458 187.074 71.3696C187.936 70.9933 188.894 70.88 189.951 71.0297ZM201.297 83.5653C200.175 83.4063 199.218 83.035 198.425 82.4514C197.645 81.8696 197.075 81.1424 196.714 80.2698C196.366 79.3991 196.266 78.4422 196.414 77.3993C196.561 76.3564 196.917 75.4641 197.48 74.7224C198.056 73.9826 198.772 73.4443 199.628 73.1077C200.498 72.7597 201.435 72.6568 202.439 72.799C203.455 72.943 204.321 73.2946 205.036 73.8538C205.752 74.413 206.269 75.1327 206.589 76.0129C206.924 76.8818 207.014 77.8575 206.861 78.9401C206.85 79.0193 206.83 79.1107 206.802 79.2145C206.787 79.3201 206.766 79.4182 206.74 79.5087L197.809 78.2434L198.003 76.877L205.943 78.0021L205.104 78.3679C205.212 77.6965 205.159 77.0762 204.943 76.507C204.728 75.9378 204.383 75.4715 203.909 75.1081C203.451 74.7334 202.885 74.4984 202.211 74.403C201.551 74.3094 200.942 74.378 200.384 74.6087C199.828 74.8262 199.367 75.185 199 75.6851C198.635 76.172 198.403 76.7587 198.306 77.4452L198.261 77.762C198.162 78.4617 198.232 79.1112 198.47 79.7106C198.723 80.2986 199.119 80.7856 199.657 81.1715C200.194 81.5574 200.84 81.8037 201.592 81.9103C202.213 81.9982 202.789 81.9721 203.32 81.832C203.865 81.6937 204.359 81.4404 204.801 81.0722L205.677 82.4487C205.123 82.9358 204.469 83.2741 203.715 83.4635C202.974 83.6548 202.168 83.6887 201.297 83.5653ZM209.881 80.1961L210.868 70.6603L213.106 70.9773L211.386 80.4093L209.881 80.1961ZM210.016 84.8006C209.646 84.7482 209.354 84.5789 209.139 84.2925C208.923 84.0061 208.84 83.6913 208.889 83.3481C208.941 82.9785 209.109 82.6926 209.394 82.4905C209.678 82.2884 210.006 82.2136 210.375 82.2659C210.745 82.3183 211.032 82.4801 211.236 82.7514C211.44 83.0227 211.515 83.3432 211.463 83.7128C211.414 84.0561 211.253 84.3363 210.98 84.5534C210.707 84.7706 210.386 84.853 210.016 84.8006Z" fill="white"/>
<path d="M238.098 72.3844C239.407 71.7247 252.068 81.7996 251.766 83.3014C251.465 84.8033 236.973 91.1629 235.702 90.2242C234.43 89.2854 236.789 73.0441 238.098 72.3844Z" fill="white" stroke="white" stroke-width="2" stroke-linecap="round" stroke-linejoin="round"/>
<defs>
<linearGradient id="paint0_linear_315_4" x1="167" y1="103" x2="178" y2="-38" gradientUnits="userSpaceOnUse">
<stop stop-color="#181818"/>
<stop offset="1" stop-color="#7C7C81"/>
</linearGradient>
</defs>
</svg>
