<svg width="64" height="64" viewBox="0 0 64 64" fill="none" xmlns="http://www.w3.org/2000/svg">
<path d="M32.0052 41.5337C31.6497 41.5337 31.3163 41.4786 31.0052 41.3683C30.6941 41.2581 30.4052 41.0688 30.1385 40.8003L20.5385 31.2003C20.0052 30.667 19.7492 30.0448 19.7705 29.3337C19.7919 28.6226 20.0479 28.0003 20.5385 27.467C21.0719 26.9337 21.7057 26.6563 22.4399 26.635C23.1741 26.6137 23.807 26.8688 24.3385 27.4003L29.3385 32.4003V13.3337C29.3385 12.5781 29.5945 11.9452 30.1065 11.435C30.6185 10.9248 31.2514 10.6688 32.0052 10.667C32.759 10.6652 33.3928 10.9212 33.9065 11.435C34.4203 11.9488 34.6754 12.5817 34.6719 13.3337V32.4003L39.6719 27.4003C40.2052 26.867 40.839 26.611 41.5732 26.6323C42.3074 26.6537 42.9403 26.9319 43.4719 27.467C43.9608 28.0003 44.2168 28.6226 44.2399 29.3337C44.263 30.0448 44.007 30.667 43.4719 31.2003L33.8719 40.8003C33.6052 41.067 33.3163 41.2563 33.0052 41.3683C32.6941 41.4803 32.3608 41.5354 32.0052 41.5337ZM16.0052 53.3337C14.5385 53.3337 13.2834 52.8119 12.2399 51.7683C11.1963 50.7248 10.6737 49.4688 10.6719 48.0003V42.667C10.6719 41.9114 10.9279 41.2786 11.4399 40.7683C11.9519 40.2581 12.5848 40.0021 13.3385 40.0003C14.0923 39.9986 14.7261 40.2546 15.2399 40.7683C15.7537 41.2821 16.0088 41.915 16.0052 42.667V48.0003H48.0052V42.667C48.0052 41.9114 48.2612 41.2786 48.7732 40.7683C49.2852 40.2581 49.9181 40.0021 50.6719 40.0003C51.4257 39.9986 52.0594 40.2546 52.5732 40.7683C53.087 41.2821 53.3421 41.915 53.3385 42.667V48.0003C53.3385 49.467 52.8168 50.723 51.7732 51.7683C50.7297 52.8137 49.4737 53.3354 48.0052 53.3337H16.0052Z" fill="#292929"/>
</svg>
