<svg width="64" height="64" viewBox="0 0 64 64" fill="none" xmlns="http://www.w3.org/2000/svg">
<path d="M53.332 10.667H10.6654C7.73203 10.667 5.33203 13.067 5.33203 16.0003V48.0003C5.33203 50.9337 7.73203 53.3337 10.6654 53.3337H53.332C56.2654 53.3337 58.6654 50.9337 58.6654 48.0003V16.0003C58.6654 13.067 56.2654 10.667 53.332 10.667ZM52.2654 22.0003L34.8254 32.907C33.092 34.0003 30.9054 34.0003 29.172 32.907L11.732 22.0003C11.4646 21.8502 11.2305 21.6474 11.0437 21.4042C10.857 21.161 10.7215 20.8824 10.6456 20.5853C10.5696 20.2882 10.5547 19.9788 10.6018 19.6758C10.6489 19.3728 10.7569 19.0825 10.9194 18.8225C11.082 18.5624 11.2956 18.3381 11.5473 18.163C11.799 17.9879 12.0837 17.8657 12.384 17.8038C12.6844 17.7419 12.9941 17.7416 13.2946 17.8029C13.595 17.8641 13.8799 17.9857 14.132 18.1603L31.9987 29.3337L49.8654 18.1603C50.1175 17.9857 50.4024 17.8641 50.7028 17.8029C51.0033 17.7416 51.313 17.7419 51.6134 17.8038C51.9137 17.8657 52.1984 17.9879 52.4501 18.163C52.7018 18.3381 52.9154 18.5624 53.0779 18.8225C53.2405 19.0825 53.3485 19.3728 53.3956 19.6758C53.4427 19.9788 53.4278 20.2882 53.3518 20.5853C53.2759 20.8824 53.1404 21.161 52.9537 21.4042C52.7669 21.6474 52.5328 21.8502 52.2654 22.0003Z" fill="#292929"/>
</svg>
